<?xml version="1.0" encoding="utf-8"?>
<!-- Generator: Adobe Illustrator 16.0.0, SVG Export Plug-In . SVG Version: 6.00 Build 0)  -->
<!DOCTYPE svg PUBLIC "-//W3C//DTD SVG 1.1//EN" "http://www.w3.org/Graphics/SVG/1.1/DTD/svg11.dtd">
<svg version="1.1" id="Layer_1" xmlns="http://www.w3.org/2000/svg" xmlns:xlink="http://www.w3.org/1999/xlink" x="0px" y="0px"
	 width="400px" height="400px" viewBox="0 0 400 400" enable-background="new 0 0 400 400" xml:space="preserve">
<g display="none">
	
		<ellipse transform="matrix(0.9521 -0.3059 0.3059 0.9521 -69.0527 70.4458)" display="inline" fill="#378AC6" cx="190.252" cy="255.556" rx="11.25" ry="21.804"/>
	
		<ellipse transform="matrix(0.7773 -0.6291 0.6291 0.7773 -114.8802 187.9635)" display="inline" fill="#378AC6" cx="208.059" cy="256.25" rx="6.255" ry="9.116"/>
	
		<ellipse transform="matrix(0.7773 -0.6291 0.6291 0.7773 -121.8826 168.1784)" display="inline" fill="#378AC6" cx="176.614" cy="256.25" rx="5.376" ry="4.477"/>
</g>
<linearGradient id="SVGID_1_" gradientUnits="userSpaceOnUse" x1="192.7061" y1="122.9448" x2="351.1223" y2="370.7639" gradientTransform="matrix(0.9983 -0.0578 0.0578 0.9983 -10.6537 13.7133)">
	<stop  offset="0" style="stop-color:#000000"/>
	<stop  offset="0.1393" style="stop-color:#2A2929;stop-opacity:0.8638"/>
	<stop  offset="0.4196" style="stop-color:#787878;stop-opacity:0.5898"/>
	<stop  offset="0.6192" style="stop-color:#AAA9A9;stop-opacity:0.3946"/>
	<stop  offset="0.7175" style="stop-color:#BDBCBC;stop-opacity:0.2985"/>
	<stop  offset="0.8336" style="stop-color:#D7D6D6;stop-opacity:0.1693"/>
	<stop  offset="0.9858" style="stop-color:#FFFFFF;stop-opacity:0"/>
</linearGradient>
<polygon opacity="0.1" fill="url(#SVGID_1_)" points="247.7,425.185 87.826,251.484 288.105,87.009 464.326,240.166 "/>
<g>
	<rect x="87.826" y="83.784" fill="#D8594D" width="200.279" height="169.532"/>
	<rect x="98.029" y="98.502" fill="#FFFFFF" width="87.937" height="140.58"/>
	<rect x="189.334" y="98.502" fill="#FFFFFF" width="87.937" height="140.58"/>
	<rect x="104.81" y="117.219" fill="#D8594D" width="24.885" height="23.333"/>
	<rect x="105.129" y="153.886" fill="#D8594D" width="24.885" height="23.333"/>
	<g>
		<circle fill="#FC4482" cx="114.88" cy="127.981" r="0.487"/>
		<path fill="#F7F7F7" d="M119.23,133.418c0.382-0.519,0.6-1.116,0.6-1.752c0-1.985-2.12-3.594-4.735-3.594
			c-2.615,0-4.735,1.609-4.735,3.594c0,0.497,0.132,0.97,0.372,1.399"/>
		<path fill="#7CDFAA" d="M117.047,128.887c-0.046-0.01-0.096,0.033-0.111,0.097l0,0c-0.014,0.064,0.012,0.125,0.059,0.135
			l0.461,0.104c0.047,0.011,0.097-0.033,0.111-0.097l0,0c0.015-0.064-0.012-0.125-0.059-0.134L117.047,128.887z"/>
		<path fill="#7CDFAA" d="M116.606,130.488c-0.031-0.036-0.097-0.03-0.146,0.013l0,0c-0.049,0.042-0.064,0.106-0.033,0.143
			l0.31,0.357c0.032,0.036,0.097,0.031,0.147-0.012l0,0c0.049-0.043,0.064-0.107,0.032-0.143L116.606,130.488z"/>
		<path fill="#7CDFAA" d="M113.938,130.101c0.036-0.031,0.031-0.097-0.012-0.146l0,0c-0.042-0.049-0.106-0.064-0.143-0.033
			l-0.358,0.309c-0.037,0.032-0.031,0.097,0.012,0.147l0,0c0.042,0.049,0.106,0.064,0.143,0.033L113.938,130.101z"/>
		<path fill="#7CDFAA" d="M114.75,131.33c0.023-0.042-0.004-0.102-0.062-0.133l0,0c-0.057-0.032-0.123-0.023-0.146,0.018
			l-0.229,0.414c-0.023,0.042,0.004,0.102,0.062,0.133l0,0c0.057,0.032,0.123,0.024,0.146-0.018L114.75,131.33z"/>
		<path fill="#7CDFAA" d="M111.624,131.216c-0.017-0.045-0.08-0.062-0.142-0.04l0,0c-0.061,0.023-0.097,0.078-0.08,0.123
			l0.166,0.443c0.017,0.045,0.08,0.062,0.142,0.039l0,0c0.062-0.023,0.097-0.078,0.081-0.123L111.624,131.216z"/>
		<path fill="#7CDFAA" d="M112.492,129.899c-0.011-0.028-0.068-0.032-0.13-0.009l0,0c-0.061,0.023-0.103,0.064-0.092,0.092
			l0.103,0.274c0.011,0.028,0.069,0.031,0.13,0.008l0,0c0.061-0.023,0.103-0.064,0.092-0.092L112.492,129.899z"/>
		<path fill="#7CDFAA" d="M115.272,128.49c0.016-0.025-0.017-0.073-0.072-0.108l0,0c-0.055-0.034-0.113-0.042-0.129-0.017
			l-0.155,0.249c-0.016,0.025,0.017,0.074,0.073,0.108l0,0c0.056,0.035,0.113,0.042,0.129,0.017L115.272,128.49z"/>
		<path fill="#7CDFAA" d="M118.252,129.986c-0.01-0.028-0.068-0.031-0.13-0.008l0,0c-0.061,0.023-0.102,0.064-0.092,0.092
			l0.103,0.274c0.01,0.028,0.069,0.032,0.13,0.009l0,0c0.061-0.023,0.103-0.064,0.092-0.092L118.252,129.986z"/>
		<path fill="#7CDFAA" d="M118.771,131.498c0.02-0.044-0.013-0.101-0.073-0.128l0,0c-0.06-0.026-0.124-0.012-0.144,0.031
			l-0.192,0.433c-0.019,0.044,0.014,0.101,0.074,0.127l0,0c0.06,0.027,0.124,0.013,0.143-0.031L118.771,131.498z"/>
		<path opacity="0.8" fill="#D35400" d="M110.403,130.976c0.425-1.655,2.343-2.904,4.647-2.904c2.615,0,4.735,1.609,4.735,3.595
			c0,0.088-0.005,0.175-0.013,0.262c-0.369,0.293-0.995,0.302-1.589-0.736c-1.188-2.074-2.358-2.917-3.271-2.138
			c-0.494,0.421-1.827,0.823-2.244,0.268c-0.417-0.556-0.792-0.099-0.96,0.668C111.657,130.229,110.895,131.044,110.403,130.976z"/>
		<circle fill="#7E2241" cx="123.405" cy="130.823" r="1.977"/>
		<circle fill="#FC4482" cx="121.428" cy="131.203" r="1.598"/>
		<path fill="#43AAA0" d="M123.973,128.976c-0.027,0.04-0.004,0.102,0.05,0.138l0,0c0.055,0.036,0.12,0.034,0.147-0.006l0.264-0.393
			c0.027-0.04,0.004-0.102-0.05-0.138l0,0c-0.055-0.037-0.121-0.034-0.147,0.006L123.973,128.976z"/>
		<circle fill="#FC4482" cx="125.108" cy="131.846" r="0.758"/>
		<path fill="#43AAA0" d="M125.086,131.327c0.007,0.022,0.036,0.032,0.066,0.023l0,0c0.03-0.009,0.049-0.034,0.042-0.056
			l-0.064-0.215c-0.006-0.022-0.036-0.032-0.066-0.023l0,0c-0.03,0.009-0.049,0.034-0.042,0.056L125.086,131.327z"/>
		<circle fill="#7E2241" cx="119.83" cy="132.238" r="0.758"/>
		<polyline fill="#378AC6" points="117.133,133.849 107.733,133.849 105.746,132.306 117.133,132.306 117.069,132.306 
			128.456,132.306 126.469,133.849 117.069,133.849 		"/>
	</g>
	<rect x="196.149" y="114.653" fill="#D8594D" width="24.885" height="23.333"/>
	<g>
		<path fill="#F7F7F7" d="M213.176,130.852c0.382-0.519,0.6-1.116,0.6-1.752c0-1.985-2.12-3.594-4.735-3.594
			c-2.615,0-4.735,1.609-4.735,3.594c0,0.497,0.132,0.97,0.372,1.399"/>
		<path fill="#7CDFAA" d="M210.994,126.321c-0.046-0.01-0.096,0.033-0.111,0.097l0,0c-0.014,0.064,0.012,0.125,0.059,0.135
			l0.461,0.104c0.047,0.011,0.097-0.033,0.111-0.097l0,0c0.015-0.064-0.012-0.125-0.059-0.134L210.994,126.321z"/>
		<path fill="#7CDFAA" d="M209.219,125.924c0.016-0.025-0.017-0.073-0.072-0.108l0,0c-0.055-0.034-0.113-0.042-0.129-0.017
			l-0.155,0.249c-0.016,0.025,0.017,0.074,0.073,0.108l0,0c0.056,0.035,0.113,0.042,0.129,0.017L209.219,125.924z"/>
		<path fill="#7CDFAA" d="M212.199,127.42c-0.01-0.028-0.068-0.031-0.13-0.008l0,0c-0.061,0.023-0.102,0.064-0.092,0.092
			l0.103,0.274c0.01,0.028,0.069,0.032,0.13,0.009l0,0c0.061-0.023,0.103-0.064,0.092-0.092L212.199,127.42z"/>
		<path opacity="0.8" fill="#D35400" d="M204.35,128.41c0.425-1.655,2.343-2.904,4.647-2.904c2.615,0,4.735,1.609,4.735,3.595
			c0,0.088-0.005,0.175-0.013,0.262c-0.369,0.293-0.995,0.302-1.589-0.736c-1.188-2.074-2.358-2.917-3.271-2.138
			c-0.494,0.421-1.827,0.823-2.244,0.268c-0.417-0.556-0.792-0.099-0.96,0.668C205.604,127.663,204.841,128.478,204.35,128.41z"/>
		<circle fill="#FFF100" cx="203.945" cy="129.1" r="1.598"/>
		<circle fill="#FC4482" cx="213.776" cy="129.672" r="0.758"/>
		<polyline fill="#F6CB6B" points="208.473,131.283 199.073,131.283 197.086,129.74 208.473,129.74 208.409,129.74 219.795,129.74 
			217.809,131.283 208.409,131.283 		"/>
	</g>
	<rect x="196.41" y="154.098" fill="#D8594D" width="24.885" height="23.333"/>
	<g>
		<circle fill="#FFF100" cx="204.205" cy="168.544" r="1.598"/>
		<circle fill="#FC4482" cx="207.83" cy="166.946" r="3.114"/>
		<circle fill="#FFF100" cx="211.709" cy="167.338" r="2.527"/>
		<circle fill="#FC4482" cx="214.036" cy="169.116" r="0.758"/>
		<polyline fill="#149588" points="208.733,170.728 199.333,170.728 197.346,169.185 208.733,169.185 208.669,169.185 
			220.056,169.185 218.069,170.728 208.669,170.728 		"/>
	</g>
	<g>
		<path fill="#F6CB6B" d="M123.125,172.542c-0.011,1.784-1.328,1.944-2.913,1.935l0,0c-1.585-0.01-2.839-0.187-2.828-1.97
			l0.023-9.197c0.011-1.784,1.305-2.674,2.891-2.665l0,0c1.585,0.01,2.861,0.917,2.85,2.7L123.125,172.542z"/>
		<path fill="#F6CB6B" d="M121.27,161.253c0,0.356-0.449,0.645-1.003,0.645l0,0c-0.554,0-1.003-0.289-1.003-0.645v-4.817
			c0-0.356,0.449-0.646,1.003-0.646l0,0c0.554,0,1.003,0.289,1.003,0.646V161.253z"/>
		
			<linearGradient id="SVGID_2_" gradientUnits="userSpaceOnUse" x1="57.6899" y1="200.3721" x2="59.7814" y2="203.6438" gradientTransform="matrix(0.739 0.1144 0.2092 0.8978 30.7597 -13.5368)">
			<stop  offset="0" style="stop-color:#000000"/>
			<stop  offset="0.0845" style="stop-color:#101010;stop-opacity:0.9034"/>
			<stop  offset="0.2495" style="stop-color:#393939;stop-opacity:0.715"/>
			<stop  offset="0.4785" style="stop-color:#7C7C7C;stop-opacity:0.4533"/>
			<stop  offset="0.76" style="stop-color:#D8D8D8;stop-opacity:0.1316"/>
			<stop  offset="0.8752" style="stop-color:#FFFFFF;stop-opacity:0"/>
		</linearGradient>
		<polygon opacity="0.1" fill="url(#SVGID_2_)" points="115.905,175.551 114.407,174.094 116.924,174.225 118.525,175.112 		"/>
		<g>
			<polygon fill="#FFF100" points="119.815,164.576 115.905,168.378 111.995,164.576 			"/>
			<path fill="#FFF100" d="M116.135,173.94c0,0.133-0.099,0.24-0.221,0.24l0,0c-0.122,0-0.221-0.107-0.221-0.24v-7.125
				c0-0.132,0.099-0.24,0.221-0.24l0,0c0.122,0,0.221,0.108,0.221,0.24V173.94z"/>
			<circle fill="#43AAA0" cx="118.09" cy="164.484" r="0.666"/>
			<g>
				<defs>
					<polygon id="SVGID_3_" points="119.815,164.576 115.905,168.378 111.995,164.576 					"/>
				</defs>
				<clipPath id="SVGID_4_">
					<use xlink:href="#SVGID_3_"  overflow="visible"/>
				</clipPath>
				<path clip-path="url(#SVGID_4_)" fill="#378AC6" d="M111.708,166.696c0,0,1.133-1.186,2.997-0.73
					c1.864,0.456,2.379,0.703,3.011,0.511c0.632-0.192-0.786,2.363-0.647,2.728c0.139,0.365-4.879,0.411-4.879,0.411
					L111.708,166.696z"/>
			</g>
			<rect x="114.638" y="173.857" fill="#FFF100" width="2.517" height="0.368"/>
		</g>
		<path fill="#F7F7F7" d="M122.688,168.037c0,0.188-0.153,0.341-0.341,0.341l0,0c-0.188,0-0.342-0.153-0.342-0.341v-4.892
			c0-0.188,0.153-0.342,0.342-0.342l0,0c0.188,0,0.341,0.153,0.341,0.342V168.037z"/>
		<rect x="119.054" y="156.4" fill="#F7F7F7" width="2.425" height="0.338"/>
		<rect x="119.145" y="155.553" fill="#FFF100" width="2.242" height="0.769"/>
	</g>
	<rect x="196.827" y="191.326" fill="#D8594D" width="24.885" height="23.333"/>
	<g>
		<path fill="#F6CB6B" d="M214.823,209.982c-0.011,1.784-1.328,1.944-2.913,1.935l0,0c-1.585-0.01-2.839-0.187-2.828-1.97
			l0.023-9.197c0.011-1.784,1.305-2.674,2.891-2.665l0,0c1.585,0.01,2.861,0.917,2.85,2.7L214.823,209.982z"/>
		<path fill="#F6CB6B" d="M212.967,198.694c0,0.356-0.449,0.645-1.003,0.645l0,0c-0.554,0-1.003-0.289-1.003-0.645v-4.817
			c0-0.356,0.449-0.646,1.003-0.646l0,0c0.554,0,1.003,0.289,1.003,0.646V198.694z"/>
		
			<linearGradient id="SVGID_5_" gradientUnits="userSpaceOnUse" x1="174.1699" y1="227.2334" x2="176.2613" y2="230.5051" gradientTransform="matrix(0.739 0.1144 0.2092 0.8978 30.7597 -13.5368)">
			<stop  offset="0" style="stop-color:#000000"/>
			<stop  offset="0.0845" style="stop-color:#101010;stop-opacity:0.9034"/>
			<stop  offset="0.2495" style="stop-color:#393939;stop-opacity:0.715"/>
			<stop  offset="0.4785" style="stop-color:#7C7C7C;stop-opacity:0.4533"/>
			<stop  offset="0.76" style="stop-color:#D8D8D8;stop-opacity:0.1316"/>
			<stop  offset="0.8752" style="stop-color:#FFFFFF;stop-opacity:0"/>
		</linearGradient>
		<polygon opacity="0.1" fill="url(#SVGID_5_)" points="207.603,212.991 206.105,211.534 208.622,211.666 210.223,212.552 		"/>
		<g>
			<polygon fill="#FFF100" points="211.513,202.017 207.603,205.818 203.693,202.017 			"/>
			<path fill="#FFF100" d="M207.833,211.381c0,0.133-0.099,0.24-0.221,0.24l0,0c-0.122,0-0.221-0.107-0.221-0.24v-7.125
				c0-0.132,0.099-0.24,0.221-0.24l0,0c0.122,0,0.221,0.108,0.221,0.24V211.381z"/>
			<circle fill="#43AAA0" cx="209.787" cy="201.925" r="0.666"/>
			<g>
				<defs>
					<polygon id="SVGID_6_" points="211.513,202.017 207.603,205.818 203.693,202.017 					"/>
				</defs>
				<clipPath id="SVGID_7_">
					<use xlink:href="#SVGID_6_"  overflow="visible"/>
				</clipPath>
				<path clip-path="url(#SVGID_7_)" fill="#378AC6" d="M203.406,204.136c0,0,1.133-1.186,2.997-0.73
					c1.864,0.456,2.379,0.703,3.011,0.511c0.632-0.192-0.786,2.363-0.647,2.728c0.139,0.365-4.879,0.411-4.879,0.411
					L203.406,204.136z"/>
			</g>
			<rect x="206.335" y="211.297" fill="#FFF100" width="2.517" height="0.368"/>
		</g>
		<path fill="#F7F7F7" d="M214.385,205.477c0,0.188-0.153,0.341-0.341,0.341l0,0c-0.188,0-0.342-0.153-0.342-0.341v-4.892
			c0-0.188,0.153-0.342,0.342-0.342l0,0c0.188,0,0.341,0.153,0.341,0.342V205.477z"/>
		<rect x="210.751" y="193.84" fill="#F7F7F7" width="2.425" height="0.338"/>
		<rect x="210.843" y="192.994" fill="#FFF100" width="2.242" height="0.769"/>
	</g>
	<rect x="105.269" y="191.295" fill="#D8594D" width="24.885" height="23.333"/>
	<g>
		
			<linearGradient id="SVGID_8_" gradientUnits="userSpaceOnUse" x1="39.9648" y1="244.2988" x2="42.0569" y2="247.5715" gradientTransform="matrix(0.739 0.1144 0.2092 0.8978 30.7597 -13.5368)">
			<stop  offset="0" style="stop-color:#000000"/>
			<stop  offset="0.0845" style="stop-color:#101010;stop-opacity:0.9034"/>
			<stop  offset="0.2495" style="stop-color:#393939;stop-opacity:0.715"/>
			<stop  offset="0.4785" style="stop-color:#7C7C7C;stop-opacity:0.4533"/>
			<stop  offset="0.76" style="stop-color:#D8D8D8;stop-opacity:0.1316"/>
			<stop  offset="0.8752" style="stop-color:#FFFFFF;stop-opacity:0"/>
		</linearGradient>
		<polygon opacity="0.1" fill="url(#SVGID_8_)" points="111.995,212.96 110.498,211.503 113.015,211.634 114.615,212.521 		"/>
		<g>
			<polygon fill="#149588" points="115.905,201.985 111.995,205.787 108.085,201.985 			"/>
			<path fill="#149588" d="M112.226,211.35c0,0.133-0.099,0.24-0.221,0.24l0,0c-0.122,0-0.221-0.107-0.221-0.24v-7.125
				c0-0.132,0.099-0.24,0.221-0.24l0,0c0.122,0,0.221,0.108,0.221,0.24V211.35z"/>
			<circle fill="#FC4482" cx="111.163" cy="203.627" r="0.666"/>
			<circle fill="#FC4482" cx="113.135" cy="203.583" r="0.193"/>
			<circle fill="#FC4482" cx="112.265" cy="202.631" r="0.134"/>
			<circle fill="#FC4482" cx="112.226" cy="203.583" r="0.134"/>
			<g>
				<defs>
					<polygon id="SVGID_9_" points="115.905,201.985 111.995,205.787 108.085,201.985 					"/>
				</defs>
				<clipPath id="SVGID_10_">
					<use xlink:href="#SVGID_9_"  overflow="visible"/>
				</clipPath>
				<path clip-path="url(#SVGID_10_)" fill="#FFF100" d="M107.799,204.105c0,0,1.133-1.186,2.997-0.73
					c1.864,0.456,2.379,0.703,3.011,0.511c0.632-0.192-0.786,2.363-0.647,2.728c0.139,0.365-4.879,0.411-4.879,0.411
					L107.799,204.105z"/>
			</g>
			<rect x="110.728" y="211.266" fill="#149588" width="2.517" height="0.368"/>
		</g>
		<g>
			<polygon fill="#FFFFFF" points="120.56,204.548 117.711,207.318 114.863,204.548 			"/>
			<path fill="#FFFFFF" d="M117.879,211.371c0,0.097-0.073,0.175-0.161,0.175l0,0c-0.089,0-0.161-0.079-0.161-0.175v-5.191
				c0-0.097,0.072-0.175,0.161-0.175l0,0c0.088,0,0.161,0.078,0.161,0.175V211.371z"/>
			<circle fill="#378AC6" cx="116.17" cy="204.549" r="0.485"/>
			<g>
				<defs>
					<polygon id="SVGID_11_" points="120.56,204.548 117.711,207.318 114.863,204.548 					"/>
				</defs>
				<clipPath id="SVGID_12_">
					<use xlink:href="#SVGID_11_"  overflow="visible"/>
				</clipPath>
				<path clip-path="url(#SVGID_12_)" fill="#F6CB6B" d="M114.654,206.093c0,0,0.826-0.865,2.183-0.532
					c1.358,0.332,1.733,0.512,2.194,0.372c0.46-0.14-0.573,1.721-0.472,1.987c0.102,0.266-3.555,0.3-3.555,0.3L114.654,206.093z"/>
			</g>
			<rect x="116.788" y="211.31" fill="#FFFFFF" width="1.834" height="0.268"/>
		</g>
		<g>
			<polygon fill="#FFFFFF" points="127.435,199.252 122.454,204.096 117.473,199.252 			"/>
			<path fill="#FFFFFF" d="M122.748,211.182c0,0.169-0.127,0.307-0.282,0.307l0,0c-0.155,0-0.282-0.138-0.282-0.307v-9.077
				c0-0.169,0.126-0.306,0.282-0.306l0,0c0.155,0,0.282,0.137,0.282,0.306V211.182z"/>
			<circle fill="#378AC6" cx="119.758" cy="199.253" r="0.848"/>
			<g>
				<defs>
					<polygon id="SVGID_13_" points="127.435,199.252 122.454,204.096 117.473,199.252 					"/>
				</defs>
				<clipPath id="SVGID_14_">
					<use xlink:href="#SVGID_13_"  overflow="visible"/>
				</clipPath>
				<path clip-path="url(#SVGID_14_)" fill="#F6CB6B" d="M117.107,201.953c0,0,1.444-1.512,3.817-0.93
					c2.375,0.58,3.031,0.895,3.837,0.65c0.804-0.244-1.001,3.01-0.826,3.475c0.178,0.466-6.215,0.524-6.215,0.524L117.107,201.953z"
					/>
			</g>
			<rect x="120.839" y="211.076" fill="#FFFFFF" width="3.207" height="0.469"/>
		</g>
	</g>
</g>
<rect x="136.16" y="117.219" fill="#378AC6" width="28.667" height="5.79"/>
<rect x="136.16" y="126.32" fill="#378AC6" width="42" height="1.28"/>
<rect x="136.16" y="131.026" fill="#378AC6" width="42" height="1.28"/>
<rect x="136.16" y="136.067" fill="#378AC6" width="42" height="1.28"/>
<rect x="136.16" y="153.755" fill="#378AC6" width="28.667" height="5.79"/>
<rect x="136.16" y="162.855" fill="#378AC6" width="42" height="1.28"/>
<rect x="136.16" y="167.562" fill="#378AC6" width="42" height="1.28"/>
<rect x="136.16" y="172.603" fill="#378AC6" width="42" height="1.28"/>
<rect x="136.16" y="191.611" fill="#378AC6" width="28.667" height="5.79"/>
<rect x="136.16" y="200.711" fill="#378AC6" width="42" height="1.28"/>
<rect x="136.16" y="205.417" fill="#378AC6" width="42" height="1.28"/>
<rect x="136.16" y="210.458" fill="#378AC6" width="42" height="1.28"/>
<rect x="227.493" y="115.441" fill="#378AC6" width="28.667" height="5.79"/>
<rect x="227.493" y="124.542" fill="#378AC6" width="42" height="1.28"/>
<rect x="227.493" y="129.248" fill="#378AC6" width="42" height="1.28"/>
<rect x="227.493" y="134.289" fill="#378AC6" width="42" height="1.28"/>
<rect x="227.493" y="154.42" fill="#378AC6" width="28.667" height="5.79"/>
<rect x="227.493" y="163.521" fill="#378AC6" width="42" height="1.28"/>
<rect x="227.493" y="168.227" fill="#378AC6" width="42" height="1.28"/>
<rect x="227.493" y="173.268" fill="#378AC6" width="42" height="1.28"/>
<g>
	<path fill="#FC4482" stroke="#FFFFFF" stroke-width="3" stroke-miterlimit="10" d="M282.233,173.776
		c-8.647,0-16.437,3.851-21.89,10.001c-5.453-6.15-13.242-10.001-21.89-10.001c-16.493,0-29.861,13.995-29.861,31.26
		c0,4.64,0.782,9.103,2.153,13.364c0,0,1.244,3.847,2.344,5.964c12.588,27.07,47.254,44.625,47.254,44.625
		s34.667-17.555,47.254-44.625c0,0,1.623-3.606,2.342-5.964c1.312-4.282,2.155-8.724,2.155-13.364
		C312.094,187.771,298.727,173.776,282.233,173.776L282.233,173.776z M282.233,173.776"/>
</g>
</svg>
