<?xml version="1.0" encoding="utf-8"?>
<!-- Generator: Adobe Illustrator 16.0.0, SVG Export Plug-In . SVG Version: 6.00 Build 0)  -->
<!DOCTYPE svg PUBLIC "-//W3C//DTD SVG 1.1//EN" "http://www.w3.org/Graphics/SVG/1.1/DTD/svg11.dtd">
<svg version="1.1" id="Layer_1" xmlns="http://www.w3.org/2000/svg" xmlns:xlink="http://www.w3.org/1999/xlink" x="0px" y="0px"
	 width="410px" height="410px" viewBox="0 0 410 410" enable-background="new 0 0 410 410" xml:space="preserve">
<linearGradient id="SVGID_1_" gradientUnits="userSpaceOnUse" x1="215.3408" y1="200.9561" x2="316.5984" y2="359.3588" gradientTransform="matrix(0.9983 -0.0578 0.0578 0.9983 -10.9342 14.0108)">
	<stop  offset="0" style="stop-color:#000000"/>
	<stop  offset="0.1393" style="stop-color:#2A2929;stop-opacity:0.8638"/>
	<stop  offset="0.4196" style="stop-color:#787878;stop-opacity:0.5898"/>
	<stop  offset="0.6192" style="stop-color:#AAA9A9;stop-opacity:0.3946"/>
	<stop  offset="0.7175" style="stop-color:#BDBCBC;stop-opacity:0.2985"/>
	<stop  offset="0.8336" style="stop-color:#D7D6D6;stop-opacity:0.1693"/>
	<stop  offset="0.9858" style="stop-color:#FFFFFF;stop-opacity:0"/>
</linearGradient>
<polygon opacity="0.1" fill="url(#SVGID_1_)" points="227.764,400.192 114.518,296.851 316.471,170.458 430.971,265.222 "/>
<g display="none">
	
		<ellipse transform="matrix(0.9521 -0.3059 0.3059 0.9521 -70.3424 72.2149)" display="inline" fill="#378AC6" cx="195.252" cy="260.556" rx="11.25" ry="21.804"/>
	
		<ellipse transform="matrix(0.7773 -0.6291 0.6291 0.7773 -116.9124 192.2227)" display="inline" fill="#378AC6" cx="213.059" cy="261.25" rx="6.255" ry="9.116"/>
	
		<ellipse transform="matrix(0.7773 -0.6291 0.6291 0.7773 -123.9148 172.4375)" display="inline" fill="#378AC6" cx="181.614" cy="261.25" rx="5.376" ry="4.477"/>
</g>
<g>
	<rect x="114.518" y="146.458" fill="#D8594D" width="169.953" height="150.393"/>
	<circle fill="#D8594D" cx="284.471" cy="170.457" r="45.066"/>
	<circle fill="#D8594D" cx="216.869" cy="104.572" r="60.819"/>
	<circle fill="#D8594D" cx="123.605" cy="146.458" r="51.711"/>
	<path fill="#D8594D" d="M297.471,298.958c0,3.59-4.368,6.5-9.756,6.5H109.227c-5.388,0-9.756-2.91-9.756-6.5l0,0
		c0-3.59,4.368-6.5,9.756-6.5h178.487C293.103,292.458,297.471,295.368,297.471,298.958L297.471,298.958z"/>
</g>
<path fill="#F6CB6B" d="M133.2,292.786c0,0.922-1.445,1.668-3.229,1.668l0,0c-1.784,0-3.229-0.746-3.229-1.668v-94.999
	c0-0.921,1.445-1.667,3.229-1.667l0,0c1.784,0,3.229,0.746,3.229,1.667V292.786z"/>
<path fill="#F6CB6B" d="M259.138,292.968c0,0.82-0.746,1.486-1.667,1.486l0,0c-0.92,0-1.667-0.666-1.667-1.486v-84.612
	c0-0.82,0.746-1.485,1.667-1.485l0,0c0.921,0,1.667,0.665,1.667,1.485V292.968z"/>
<path fill="#F6CB6B" d="M274.411,293.194c0,0.697-0.746,1.26-1.667,1.26l0,0c-0.92,0-1.667-0.562-1.667-1.26v-71.75
	c0-0.695,0.746-1.259,1.667-1.259l0,0c0.921,0,1.667,0.563,1.667,1.259V293.194z"/>
<path fill-rule="evenodd" clip-rule="evenodd" fill="#F6CB6B" d="M258.021,314.563c1.108-1.57,2.189-3.105,3.272-4.637
	c17.998-25.457,37.768-49.447,59.511-71.797c6.967-7.162,14.023-14.236,21.101-21.288c2.112-2.104,4.447-3.983,7.324-5.007
	c2.586-0.921,4.71-0.411,6.289,1.527c1.347,1.655,1.379,3.537,0.791,5.479c-0.842,2.781-2.419,5.161-4.304,7.308
	c-6.073,6.915-12.156,13.822-18.33,20.646C312.487,270.218,294.253,295.8,278,322.829c-3.318,5.518-6.434,11.16-9.828,16.629
	c-1.128,1.818-2.608,3.582-4.315,4.848c-5.537,4.104-12.312,2.682-15.793-3.275c-1.471-2.518-2.503-5.293-3.705-7.965
	c-5.902-13.125-12.996-25.523-22.411-36.482c-1.879-2.188-4.071-4.104-6.042-6.217c-0.95-1.018-1.858-2.123-2.548-3.324
	c-1.949-3.391-1.234-7.189,1.744-9.723c1.833-1.559,4.001-1.673,6.062-0.771c2.146,0.939,4.263,2.07,6.159,3.439
	c8.389,6.062,15.308,13.617,21.519,21.832C251.958,305.94,254.888,310.2,258.021,314.563z"/>
</svg>
